<svg xmlns="http://www.w3.org/2000/svg" viewBox="0 0 100 30" width="100" height="30">

  <g transform="translate(0, 0)">
    <!-- <path d="M25.23 7.83L21.92 0 9.34 29.71h6.58zm-9.33 0L12.58 0 0 29.71h6.58z" fill="#333"/> -->
    <path d="M25.23 7.83L21.92 0 9.34 29.71h6.58zm-9.33 0L12.58 0 0 29.71h6.58z" fill="oklch(0.708 0 0)"/>
    <path d="M24.69 29.71h9.81l-3.93-9.27s1.75 9.27-5.88 9.27z" fill="#ea5504"/>
  </g>

  <g transform="translate(35, 0)">
    <!-- <path d="M15.9 7.83L12.58 0 0 29.71h6.58z" fill="#333"/> -->
    <path d="M15.9 7.83L12.58 0 0 29.71h6.58z" fill="oklch(0.708 0 0)"/>
    <path d="M15.35 29.71h9.81l-3.93-9.27s1.77 9.27-5.88 9.27z" fill="#0081cc"/>
  </g>

  <g transform="translate(61, 0)">
    <path d="M21.56 9.3V0h-9.29s9.29 0 9.29 9.3z" fill="#f08200"/>
    <!-- <path d="M9.12 14.86c-2.51 0-2.46-3.33-2.46-7.43S6.61 0 9.12 0C4.09 0 0 3.33 0 7.43s4.09 7.43 9.12 7.43zM12.44 14.85c2.52 0 2.47 3.33 2.47 7.43s.05 7.43-2.47 7.43c5 0 9.12-3.33 9.12-7.43s-4.08-7.43-9.12-7.43zM0 20.42v9.29h9.3S0 29.76 0 20.42z" fill="#333"/> -->
    <path d="M9.12 14.86c-2.51 0-2.46-3.33-2.46-7.43S6.61 0 9.12 0C4.09 0 0 3.33 0 7.43s4.09 7.43 9.12 7.43zM12.44 14.85c2.52 0 2.47 3.33 2.47 7.43s.05 7.43-2.47 7.43c5 0 9.12-3.33 9.12-7.43s-4.08-7.43-9.12-7.43zM0 20.42v9.29h9.3S0 29.76 0 20.42z" fill="oklch(0.708 0 0)"/>
  </g>
</svg>
